<?xml version="1.0" encoding="UTF-8"?>
<svg id="Calque_2" xmlns="http://www.w3.org/2000/svg" viewBox="0 0 76.76 89.59">
  <defs>
    <style>
      .cls-1 {
        fill: #d3da3d;
      }
    </style>
  </defs>
  <g id="Calque_1-2" data-name="Calque_1">
    <g>
      <path class="cls-1" d="M31.67,0C19.32,0,8.14,4.97,0,13.01l5.82,8.19c6.44-6.96,15.62-11.35,25.85-11.35,19.46,0,35.24,15.78,35.24,35.24,0,.79-.07,1.57-.12,2.35H6.87c.94,9.99,7.77,18.25,16.99,21.3,2.46.81,5.08,1.27,7.81,1.27s5.41-.47,7.89-1.3c4.52-1.51,8.46-4.26,11.41-7.87l6.12,8.61c-3.21,3.34-7.05,6.06-11.36,7.94-4.19,1.83-8.8,2.86-13.65,2.91l6.59,9.28c4.54-.71,8.86-2.09,12.84-4.05,14.94-7.34,25.25-22.67,25.25-40.45C76.76,20.19,56.58,0,31.67,0Z"/>
      <path class="cls-1" d="M55.42,37.54c-3.2-10.07-12.62-17.37-23.75-17.37-8.02,0-15.14,3.81-19.7,9.7-1.76,2.28-3.16,4.86-4.05,7.67h47.49Z"/>
    </g>
  </g>
</svg>