<svg width="1600" height="900" viewBox="0 0 1600 900" fill="none" xmlns="http://www.w3.org/2000/svg">
  <rect width="1600" height="900" fill="#081C3A"/>
  <rect width="1600" height="900" fill="url(#bg)"/>
  <circle cx="1260" cy="170" r="220" fill="#4FD1B5" fill-opacity="0.12"/>
  <circle cx="250" cy="740" r="260" fill="#F59E0B" fill-opacity="0.08"/>
  <rect x="120" y="110" width="1360" height="680" rx="32" fill="white" fill-opacity="0.06" stroke="white" stroke-opacity="0.15"/>
  <rect x="190" y="180" width="520" height="470" rx="24" fill="white" fill-opacity="0.08"/>
  <rect x="230" y="225" width="230" height="18" rx="9" fill="#4FD1B5" fill-opacity="0.9"/>
  <rect x="230" y="265" width="340" height="14" rx="7" fill="white" fill-opacity="0.75"/>
  <rect x="230" y="295" width="290" height="14" rx="7" fill="white" fill-opacity="0.45"/>
  <rect x="230" y="360" width="420" height="170" rx="18" fill="#0B2A52"/>
  <path d="M270 484L335 436L400 455L468 380L530 420L610 326" stroke="#4FD1B5" stroke-width="10" stroke-linecap="round" stroke-linejoin="round"/>
  <circle cx="335" cy="436" r="10" fill="#4FD1B5"/>
  <circle cx="468" cy="380" r="10" fill="#4FD1B5"/>
  <circle cx="610" cy="326" r="10" fill="#4FD1B5"/>
  <rect x="230" y="570" width="180" height="18" rx="9" fill="#F59E0B" fill-opacity="0.8"/>
  <rect x="230" y="610" width="300" height="14" rx="7" fill="white" fill-opacity="0.55"/>
  <rect x="780" y="185" width="510" height="230" rx="24" fill="white" fill-opacity="0.08"/>
  <rect x="820" y="230" width="180" height="18" rx="9" fill="#4FD1B5"/>
  <rect x="820" y="272" width="390" height="14" rx="7" fill="white" fill-opacity="0.7"/>
  <rect x="820" y="305" width="350" height="14" rx="7" fill="white" fill-opacity="0.45"/>
  <rect x="820" y="350" width="110" height="14" rx="7" fill="#F59E0B" fill-opacity="0.8"/>
  <rect x="948" y="344" width="265" height="26" rx="13" fill="white" fill-opacity="0.12"/>
  <rect x="820" y="388" width="110" height="14" rx="7" fill="#F59E0B" fill-opacity="0.8"/>
  <rect x="948" y="382" width="220" height="26" rx="13" fill="white" fill-opacity="0.12"/>
  <rect x="780" y="455" width="510" height="255" rx="24" fill="white" fill-opacity="0.08"/>
  <rect x="820" y="500" width="180" height="18" rx="9" fill="#4FD1B5"/>
  <rect x="820" y="546" width="150" height="110" rx="18" fill="#0B2A52"/>
  <rect x="995" y="566" width="80" height="90" rx="14" fill="#12386D"/>
  <rect x="1100" y="530" width="80" height="126" rx="14" fill="#1D4C8C"/>
  <rect x="1205" y="488" width="80" height="168" rx="14" fill="#4FD1B5" fill-opacity="0.9"/>
  <rect x="820" y="680" width="330" height="14" rx="7" fill="white" fill-opacity="0.45"/>
  <g opacity="0.95">
    <circle cx="1335" cy="645" r="42" fill="#4FD1B5"/>
    <path d="M1316 646L1330 660L1356 632" stroke="#081C3A" stroke-width="10" stroke-linecap="round" stroke-linejoin="round"/>
  </g>
  <defs>
    <linearGradient id="bg" x1="120" y1="80" x2="1480" y2="820" gradientUnits="userSpaceOnUse">
      <stop stop-color="#0A2244"/>
      <stop offset="1" stop-color="#12386D"/>
    </linearGradient>
  </defs>
</svg>