<svg width="1600" height="900" viewBox="0 0 1600 900" fill="none" xmlns="http://www.w3.org/2000/svg">
  <rect width="1600" height="900" fill="#071A36"/>
  <rect width="1600" height="900" fill="url(#bg)"/>
  <circle cx="1320" cy="160" r="210" fill="#4FD1B5" fill-opacity="0.14"/>
  <circle cx="240" cy="760" r="280" fill="#F59E0B" fill-opacity="0.08"/>
  <rect x="110" y="100" width="1380" height="700" rx="36" fill="white" fill-opacity="0.05" stroke="white" stroke-opacity="0.14"/>

  <rect x="170" y="170" width="520" height="560" rx="28" fill="white" fill-opacity="0.08"/>
  <rect x="220" y="220" width="210" height="18" rx="9" fill="#4FD1B5"/>
  <rect x="220" y="258" width="330" height="14" rx="7" fill="white" fill-opacity="0.75"/>
  <rect x="220" y="288" width="290" height="14" rx="7" fill="white" fill-opacity="0.45"/>
  <rect x="220" y="340" width="410" height="170" rx="22" fill="#0B2A52"/>
  <path d="M260 470L322 430L388 452L456 376L520 404L602 318" stroke="#4FD1B5" stroke-width="10" stroke-linecap="round" stroke-linejoin="round"/>
  <circle cx="322" cy="430" r="10" fill="#4FD1B5"/>
  <circle cx="456" cy="376" r="10" fill="#4FD1B5"/>
  <circle cx="602" cy="318" r="10" fill="#4FD1B5"/>
  <rect x="220" y="548" width="170" height="18" rx="9" fill="#F59E0B" fill-opacity="0.85"/>
  <rect x="220" y="592" width="260" height="16" rx="8" fill="white" fill-opacity="0.5"/>
  <rect x="220" y="630" width="200" height="16" rx="8" fill="white" fill-opacity="0.3"/>

  <rect x="760" y="170" width="660" height="240" rx="28" fill="white" fill-opacity="0.08"/>
  <rect x="810" y="220" width="200" height="18" rx="9" fill="#4FD1B5"/>
  <rect x="810" y="262" width="460" height="14" rx="7" fill="white" fill-opacity="0.72"/>
  <rect x="810" y="294" width="380" height="14" rx="7" fill="white" fill-opacity="0.45"/>
  <rect x="810" y="348" width="150" height="14" rx="7" fill="#F59E0B" fill-opacity="0.85"/>
  <rect x="986" y="339" width="280" height="28" rx="14" fill="white" fill-opacity="0.12"/>
  <rect x="810" y="388" width="150" height="14" rx="7" fill="#F59E0B" fill-opacity="0.85"/>
  <rect x="986" y="379" width="225" height="28" rx="14" fill="white" fill-opacity="0.12"/>

  <rect x="760" y="440" width="660" height="290" rx="28" fill="white" fill-opacity="0.08"/>
  <rect x="810" y="490" width="220" height="18" rx="9" fill="#4FD1B5"/>
  <rect x="810" y="546" width="130" height="130" rx="18" fill="#102F5C"/>
  <rect x="965" y="578" width="88" height="98" rx="16" fill="#173D72"/>
  <rect x="1080" y="532" width="88" height="144" rx="16" fill="#265392"/>
  <rect x="1195" y="486" width="88" height="190" rx="16" fill="#4FD1B5" fill-opacity="0.92"/>
  <rect x="810" y="694" width="360" height="14" rx="7" fill="white" fill-opacity="0.4"/>

  <g opacity="0.98">
    <circle cx="1352" cy="640" r="46" fill="#4FD1B5"/>
    <path d="M1331 642L1346 657L1374 628" stroke="#071A36" stroke-width="10" stroke-linecap="round" stroke-linejoin="round"/>
  </g>

  <defs>
    <linearGradient id="bg" x1="90" y1="70" x2="1510" y2="830" gradientUnits="userSpaceOnUse">
      <stop stop-color="#0A2244"/>
      <stop offset="1" stop-color="#133E74"/>
    </linearGradient>
  </defs>
</svg>
